<svg width="472" height="93" viewBox="0 0 472 93" fill="none" xmlns="http://www.w3.org/2000/svg">
<path d="M78.8652 77.7285C78.8188 84.2107 78.489 87.7605 76.1553 90.0898C73.4364 92.8088 69.0657 92.8086 60.3154 92.8086H32.4775C23.7271 92.8086 19.3565 92.809 16.6377 90.0898C14.304 87.7605 13.9741 84.2107 13.9277 77.7285H78.8652ZM46.3965 0C50.7607 0 55.016 1.3669 58.5635 3.90918C62.1109 6.45146 64.7727 10.0418 66.1758 14.1748C67.2893 14.0078 68.4296 13.9238 69.5957 13.9238C74.9279 13.9204 80.0985 15.7547 84.2373 19.1172C88.3761 22.4797 91.23 27.1653 92.3193 32.3857C93.4086 37.6063 92.6666 43.0429 90.2178 47.7803C87.769 52.5176 83.7636 56.2668 78.875 58.3965V70.7676H13.9189V58.3965C9.78092 56.5902 6.25953 53.6153 3.78711 49.8369C1.31481 46.0586 -0.00128509 41.6405 9.41589e-07 37.125C-0.000356392 33.789 0.718161 30.4919 2.10742 27.459C3.49676 24.4259 5.52432 21.7282 8.05078 19.5498C10.5772 17.3714 13.5439 15.7636 16.748 14.8359C19.9522 13.9083 23.3189 13.6831 26.6182 14.1748C28.0212 10.0418 30.683 6.45146 34.2305 3.90918C37.7778 1.36699 42.0324 9.20036e-05 46.3965 0ZM49.2773 29.3613C48.312 28.8001 47.1848 29.5373 47.1846 30.6523V33.5039C47.1846 35.7532 46.239 39.8584 43.6123 41.5664C42.2709 42.4383 40.8204 41.133 40.6582 39.542L40.5244 38.2354C40.3684 36.7161 38.821 35.7942 37.6074 36.7207C35.4252 38.3819 33.1465 41.2985 33.1465 45.6348C33.1465 56.7266 41.3964 59.502 45.5205 59.502C45.7616 59.5019 46.0135 59.4941 46.2754 59.4785C44.2383 59.3054 40.9455 58.0416 40.9453 53.9551C40.9453 50.7576 43.2769 48.5969 45.0488 47.5439C45.5261 47.2632 46.083 47.6299 46.083 48.1836V49.1035C46.083 49.8054 46.3566 50.9054 47.0039 51.6572C47.7369 52.5084 48.8115 51.6167 48.8975 50.4971C48.9255 50.1446 49.2812 49.9198 49.5869 50.0977C50.5867 50.6827 51.8643 51.9307 51.8643 53.9551C51.8641 57.1493 50.103 58.6189 48.4824 59.1914C53.3583 58.2149 59.6629 54.7066 59.6631 45.6367C59.6631 37.3837 53.6214 31.8867 49.2773 29.3613Z" fill="white"/>
<path d="M139.648 76.9282C135.122 76.9282 131.191 75.9665 127.853 74.0431C124.516 72.0632 121.914 69.2913 120.047 65.7274C118.237 62.1636 117.331 58.0057 117.331 53.2539C117.331 48.5021 118.237 44.3725 120.047 40.8652C121.914 37.3013 124.516 34.5295 127.853 32.5495C131.191 30.5696 135.122 29.5796 139.648 29.5796C143.495 29.5796 146.917 30.2585 149.915 31.6161C152.914 32.9738 155.346 34.9254 157.213 37.4711C159.136 39.9601 160.324 43.0149 160.777 46.6353L149.576 47.2293C149.123 44.3442 147.992 42.1663 146.182 40.6955C144.428 39.1681 142.25 38.4044 139.648 38.4044C136.141 38.4044 133.425 39.7338 131.502 42.3926C129.579 44.9948 128.617 48.6152 128.617 53.2539C128.617 57.9492 129.579 61.5979 131.502 64.2001C133.425 66.8023 136.141 68.1033 139.648 68.1033C142.307 68.1033 144.513 67.3397 146.267 65.8123C148.077 64.2849 149.18 61.909 149.576 58.6846L160.777 59.1937C160.324 62.8141 159.164 65.9537 157.298 68.6125C155.431 71.2712 152.998 73.336 150 74.8068C147.002 76.221 143.551 76.9282 139.648 76.9282ZM182.17 76.9282C177.419 76.9282 173.6 75.8533 170.715 73.7037C167.83 71.4975 166.388 68.4428 166.388 64.5395C166.388 60.6362 167.604 57.5815 170.036 55.3752C172.469 53.169 176.174 51.5851 181.152 50.6234L196.171 47.6535C196.171 44.4291 195.436 42.0249 193.965 40.4409C192.494 38.8004 190.316 37.9802 187.431 37.9802C184.829 37.9802 182.764 38.6024 181.237 39.847C179.766 41.0349 178.748 42.7603 178.182 45.0231L167.151 44.5139C168.056 39.7055 170.263 36.0285 173.77 33.4829C177.277 30.8807 181.831 29.5796 187.431 29.5796C193.88 29.5796 198.745 31.2201 202.026 34.5012C205.364 37.7256 207.033 42.3643 207.033 48.4172V64.8789C207.033 66.0668 207.231 66.8871 207.627 67.3397C208.079 67.7922 208.73 68.0185 209.578 68.0185H211.021V75.9099C210.681 76.0231 210.116 76.1079 209.324 76.1645C208.588 76.221 207.825 76.2493 207.033 76.2493C205.166 76.2493 203.497 75.9665 202.026 75.4008C200.555 74.7785 199.424 73.732 198.632 72.2612C197.84 70.7338 197.444 68.669 197.444 66.0668L198.378 66.7457C197.925 68.7256 196.935 70.5075 195.408 72.0915C193.937 73.6189 192.07 74.8068 189.807 75.6554C187.545 76.5039 184.999 76.9282 182.17 76.9282ZM184.377 69.0367C186.809 69.0367 188.902 68.5559 190.656 67.5942C192.409 66.6325 193.767 65.3032 194.729 63.6061C195.691 61.909 196.171 59.9008 196.171 57.5815V55.0358L184.462 57.4117C182.029 57.9209 180.275 58.6846 179.201 59.7028C178.182 60.6645 177.673 61.9373 177.673 63.5212C177.673 65.2749 178.239 66.6325 179.37 67.5942C180.558 68.5559 182.227 69.0367 184.377 69.0367ZM228.273 75.9099C224.992 75.9099 222.361 75.0614 220.381 73.3643C218.401 71.6672 217.411 68.9519 217.411 65.2183V15.6636H228.273V64.1152C228.273 65.2466 228.556 66.0951 229.121 66.6608C229.743 67.2265 230.592 67.5094 231.667 67.5094H234.976V75.9099H228.273ZM241.939 75.9099V30.5979H252.801V75.9099H241.939ZM241.77 24.5733V14.8999H253.055V24.5733H241.77ZM282.312 76.9282C277.843 76.9282 274.081 76.2776 271.026 74.9765C268.028 73.6754 265.709 71.8652 264.068 69.5459C262.428 67.2265 261.495 64.596 261.268 61.6544L272.384 61.1453C272.78 63.5212 273.77 65.3597 275.354 66.6608C276.938 67.9619 279.286 68.6125 282.397 68.6125C284.943 68.6125 286.922 68.2165 288.337 67.4245C289.808 66.576 290.543 65.2749 290.543 63.5212C290.543 62.503 290.288 61.6544 289.779 60.9756C289.27 60.2968 288.308 59.7028 286.894 59.1937C285.48 58.6846 283.387 58.1754 280.615 57.6663C275.976 56.8743 272.328 55.9127 269.669 54.7813C267.01 53.5933 265.115 52.1225 263.984 50.3689C262.909 48.6152 262.371 46.4373 262.371 43.8351C262.371 39.5924 263.984 36.17 267.208 33.5678C270.489 30.909 275.269 29.5796 281.548 29.5796C285.621 29.5796 289.044 30.2585 291.816 31.6161C294.588 32.9172 296.737 34.7274 298.265 37.0468C299.849 39.3096 300.839 41.9117 301.235 44.8534L290.288 45.3625C290.006 43.8351 289.496 42.5057 288.761 41.3743C288.026 40.243 287.036 39.3944 285.791 38.8287C284.547 38.2065 283.076 37.8953 281.379 37.8953C278.833 37.8953 276.91 38.4045 275.609 39.4227C274.308 40.4409 273.657 41.7986 273.657 43.4957C273.657 44.6836 273.94 45.6736 274.506 46.4656C275.128 47.2576 276.118 47.9081 277.475 48.4172C278.833 48.8698 280.643 49.294 282.906 49.69C287.658 50.4254 291.391 51.3871 294.107 52.5751C296.879 53.7065 298.83 55.1773 299.962 56.9875C301.15 58.7411 301.744 60.8625 301.744 63.3515C301.744 66.2366 300.923 68.6973 299.283 70.7338C297.699 72.7703 295.436 74.326 292.495 75.4008C289.61 76.419 286.215 76.9282 282.312 76.9282ZM326.805 75.9099C322.279 75.9099 318.942 74.8634 316.792 72.7703C314.699 70.6772 313.652 67.3962 313.652 62.9273V19.9911H324.514V61.909C324.514 64.0021 324.966 65.4729 325.871 66.3214C326.776 67.1134 328.191 67.5094 330.114 67.5094H336.478V75.9099H326.805ZM306.525 38.9984V30.5979H336.478V38.9984H306.525ZM357.348 76.9282C352.596 76.9282 348.777 75.8533 345.892 73.7037C343.007 71.4975 341.565 68.4428 341.565 64.5395C341.565 60.6362 342.781 57.5815 345.213 55.3752C347.646 53.169 351.351 51.5851 356.329 50.6234L371.348 47.6535C371.348 44.4291 370.613 42.0249 369.142 40.4409C367.671 38.8004 365.494 37.9802 362.608 37.9802C360.006 37.9802 357.941 38.6024 356.414 39.847C354.943 41.0349 353.925 42.7603 353.359 45.0231L342.328 44.5139C343.233 39.7055 345.44 36.0285 348.947 33.4829C352.454 30.8807 357.008 29.5796 362.608 29.5796C369.057 29.5796 373.922 31.2201 377.203 34.5012C380.541 37.7256 382.21 42.3643 382.21 48.4172V64.8789C382.21 66.0668 382.408 66.8871 382.804 67.3397C383.256 67.7922 383.907 68.0185 384.755 68.0185H386.198V75.9099C385.858 76.0231 385.293 76.1079 384.501 76.1645C383.765 76.221 383.002 76.2493 382.21 76.2493C380.343 76.2493 378.674 75.9665 377.203 75.4008C375.733 74.7785 374.601 73.732 373.809 72.2612C373.017 70.7338 372.621 68.669 372.621 66.0668L373.555 66.7457C373.102 68.7256 372.112 70.5075 370.585 72.0915C369.114 73.6189 367.247 74.8068 364.984 75.6554C362.722 76.5039 360.176 76.9282 357.348 76.9282ZM359.554 69.0367C361.986 69.0367 364.079 68.5559 365.833 67.5942C367.587 66.6325 368.944 65.3032 369.906 63.6061C370.868 61.909 371.348 59.9008 371.348 57.5815V55.0358L359.639 57.4117C357.206 57.9209 355.452 58.6846 354.378 59.7028C353.359 60.6645 352.85 61.9373 352.85 63.5212C352.85 65.2749 353.416 66.6325 354.547 67.5942C355.735 68.5559 357.404 69.0367 359.554 69.0367ZM393.251 75.9099V30.5979H403.094L403.519 43.326L402.246 42.8169C402.698 39.649 403.632 37.1034 405.046 35.18C406.46 33.2566 408.186 31.8424 410.222 30.9373C412.259 30.0322 414.493 29.5796 416.926 29.5796C420.263 29.5796 423.063 30.315 425.326 31.7858C427.646 33.2566 429.399 35.2931 430.587 37.8953C431.775 40.4409 432.369 43.4108 432.369 46.805V75.9099H421.508V50.284C421.508 47.7384 421.253 45.5888 420.744 43.8351C420.235 42.0815 419.386 40.7521 418.198 39.847C417.067 38.8853 415.54 38.4044 413.616 38.4044C410.731 38.4044 408.412 39.4227 406.658 41.4592C404.961 43.4957 404.113 46.4373 404.113 50.284V75.9099H393.251ZM459.223 75.9099C454.698 75.9099 451.36 74.8634 449.211 72.7703C447.118 70.6772 446.071 67.3962 446.071 62.9273V19.9911H456.932V61.909C456.932 64.0021 457.385 65.4729 458.29 66.3214C459.195 67.1134 460.609 67.5094 462.533 67.5094H468.897V75.9099H459.223ZM438.943 38.9984V30.5979H468.897V38.9984H438.943Z" fill="white"/>
</svg>
